<svg width="1024" height="1024" viewBox="0 0 1024 1024" fill="none" xmlns="http://www.w3.org/2000/svg">
<path d="M414.269 512H318C318 398.721 354.582 344 432.56 344C498.022 344 524.978 387.2 569.261 387.2C601.03 387.2 608.731 365.12 608.731 344H705C705 457.279 668.418 512 590.44 512C524.978 512 498.022 468.8 453.739 468.8C421.97 468.8 414.269 490.88 414.269 512Z" fill="black"/>
<path d="M360.24 649H351.024V565.672H319.92V557.48H391.472V565.672H360.24V649ZM442.143 613.416C442.143 615.208 442.143 617 442.015 618.024H390.303C390.431 631.208 397.471 643.624 412.831 643.624C426.271 643.624 431.519 634.408 432.799 629.032H441.247C438.047 640.936 429.087 650.792 412.703 650.792C392.735 650.792 381.599 636.2 381.599 616.36C381.599 595.496 393.887 582.056 412.703 582.056C431.519 582.056 442.143 595.24 442.143 613.416ZM390.303 610.728H433.311C433.311 599.08 425.759 589.224 412.319 589.224C399.647 589.224 390.943 598.568 390.303 610.728ZM480.941 582.184C483.245 582.184 485.037 582.312 486.573 582.568V590.76C485.293 590.504 483.885 590.376 482.605 590.376C470.829 590.376 462.125 599.848 462.125 612.52V649H453.805V583.72H462.125V597.032H462.381C465.709 588.456 471.725 582.184 480.941 582.184ZM563.27 582.184C575.686 582.184 582.47 589.608 582.47 603.176V649H574.15V604.968C574.15 596.776 572.23 589.48 561.478 589.48C549.958 589.48 543.174 598.312 543.174 607.784V649H534.854V604.968C534.854 596.776 532.934 589.48 522.054 589.48C510.662 589.48 503.75 598.312 503.75 607.784V649H495.43V583.72H503.75V592.936H504.006C507.462 587.688 513.606 582.184 523.846 582.184C533.062 582.184 538.95 586.408 541.382 594.216H541.638C545.862 587.688 552.902 582.184 563.27 582.184ZM606.777 570.664H596.025V559.912H606.777V570.664ZM605.625 649H597.305V583.72H605.625V649ZM651.906 582.184C663.554 582.184 673.282 588.712 673.282 603.176V649H664.962V604.968C664.962 596.648 661.122 589.48 649.858 589.48C637.442 589.48 629.25 598.184 629.25 607.784V649H620.93V583.72H629.25V593.064H629.506C633.218 587.688 640.258 582.184 651.906 582.184ZM697.652 570.664H686.9V559.912H697.652V570.664ZM696.5 649H688.18V583.72H696.5V649Z" fill="black"/>
<path d="M414.269 512H318C318 398.721 354.582 344 432.56 344C498.022 344 524.978 387.2 569.261 387.2C601.03 387.2 608.731 365.12 608.731 344H705C705 457.279 668.418 512 590.44 512C524.978 512 498.022 468.8 453.739 468.8C421.97 468.8 414.269 490.88 414.269 512Z" fill="white"/>
<path d="M360.24 649H351.024V565.672H319.92V557.48H391.472V565.672H360.24V649ZM442.143 613.416C442.143 615.208 442.143 617 442.015 618.024H390.303C390.431 631.208 397.471 643.624 412.831 643.624C426.271 643.624 431.519 634.408 432.799 629.032H441.247C438.047 640.936 429.087 650.792 412.703 650.792C392.735 650.792 381.599 636.2 381.599 616.36C381.599 595.496 393.887 582.056 412.703 582.056C431.519 582.056 442.143 595.24 442.143 613.416ZM390.303 610.728H433.311C433.311 599.08 425.759 589.224 412.319 589.224C399.647 589.224 390.943 598.568 390.303 610.728ZM480.941 582.184C483.245 582.184 485.037 582.312 486.573 582.568V590.76C485.293 590.504 483.885 590.376 482.605 590.376C470.829 590.376 462.125 599.848 462.125 612.52V649H453.805V583.72H462.125V597.032H462.381C465.709 588.456 471.725 582.184 480.941 582.184ZM563.27 582.184C575.686 582.184 582.47 589.608 582.47 603.176V649H574.15V604.968C574.15 596.776 572.23 589.48 561.478 589.48C549.958 589.48 543.174 598.312 543.174 607.784V649H534.854V604.968C534.854 596.776 532.934 589.48 522.054 589.48C510.662 589.48 503.75 598.312 503.75 607.784V649H495.43V583.72H503.75V592.936H504.006C507.462 587.688 513.606 582.184 523.846 582.184C533.062 582.184 538.95 586.408 541.382 594.216H541.638C545.862 587.688 552.902 582.184 563.27 582.184ZM606.777 570.664H596.025V559.912H606.777V570.664ZM605.625 649H597.305V583.72H605.625V649ZM651.906 582.184C663.554 582.184 673.282 588.712 673.282 603.176V649H664.962V604.968C664.962 596.648 661.122 589.48 649.858 589.48C637.442 589.48 629.25 598.184 629.25 607.784V649H620.93V583.72H629.25V593.064H629.506C633.218 587.688 640.258 582.184 651.906 582.184ZM697.652 570.664H686.9V559.912H697.652V570.664ZM696.5 649H688.18V583.72H696.5V649Z" fill="white"/>
</svg>
